<?xml version="1.0" encoding="UTF-8"?>
<svg id="a" xmlns="http://www.w3.org/2000/svg" version="1.1" viewBox="0 550 1066.6 397.3">
  <!-- Generator: Adobe Illustrator 29.3.1, SVG Export Plug-In . SVG Version: 2.1.0 Build 151)  -->
  <defs>
    <style>
      .st0 {
        fill: #060300;
      }
    </style>
  </defs>
  <g id="e">
    <g>
      <path class="st0" d="M383.3,812c-3.6-5.5-7.8-10.7-11.9-15.9-1.8-2.3-4.6-4.2-5.5-6.8-5.4-14.6-21.7-24-36-24.4-8-.3-15.6,1.4-23.3,2.4-2.8.4-6.7.1-8.5-1.6-1.3-1.1.1-5.2.3-7.9,0-.2.2-.5.4-.7,3.9-7.6,7.9-15.2,11.8-22.8,5.4-10.5,5.7-21.1,0-31.4-3.6-6.4-7.6-12.7-12.1-18.6-7.6-10.3-14.9-20.9-23.7-30-12.8-13.4-26.8-25.7-40.4-38.3-9.9-9.1-20-18.1-30.2-27-10.4-9-20.7-18.1-31.5-26.6-8.7-6.8-18.2-12.4-31.2-10,2.4,3.6,4.2,7.2,6.9,10.1,10.5,11.4,21.4,22.4,31.9,33.7,11.6,12.4,19.3,27.7,29.5,41.3,2.7,3.6,3.5,8.3,7.3,11.6,6.8,6.2,11.7,13.9,14.4,22.8,1.7,5.4,3.4,10.9,6,15.9,6.2,11.4,6.4,22.5,0,33.7-1.1,1.9-1.9,4-2.4,6.1-1.6,7.7-3,15.4-4.5,23.3-2.7-2.1-5.3-3.9-7.7-5.8-14.4-11.4-31.1-18.8-48.1-25.2-24.7-9.3-49.6-17.9-74.7-26.3-8.3-2.7-17.1-4.3-25.8-5.7-10.3-1.6-20.8-2.4-31.2-3.2-12.7-1-25.4-1.6-38.1-2.5-3-.3-4.9,1.4-5.1,3.7-.2,1.8,1.2,4.1,2.6,5.6,1.2,1.2,3.3,1.4,5,1.9,10.1,2.9,20.4,5.2,30.1,8.8,26.2,9.9,52.7,19.3,76.2,34.9,4,2.7,9.4,2.8,12.3,7.4,1.4,2.2,3.2,4.2,5.1,6,8.3,7.4,16.3,15.3,25.3,21.8,6.9,5,12,12.1,19.7,16.2.5.2.7,1.1.8,1.7,1.1,8.1,2.3,16.2,3.1,24.4.2,2.1-.4,5-1.8,6.5-3.8,4.1-7.7,8.6-12.6,11.2-7.8,4.3-16.2,7.3-24.5,10.6-17.8,6.9-35.8,13.3-51.5,24.7-4.6,3.3-8.8,7.3-13.7,11.4,8.2,1.9,14.3-1.1,20.2-4.4,8.2-4.6,16.7-4.9,25.9-3.2,0,4.2.3,8.5-.1,12.6-.4,3-1.6,6-2.6,8.9-.8,2.1-1.9,4.1-2.9,6.2-1.7,3.3-3.4,6.6-5.1,9.8-.8,1.5-1.8,2.9-2.6,4.3-1.5,2.5-2.8,5.2-4.5,7.5-5.5,7.6-10.7,15.3-13.2,24.6,3.2,2.5,6.6,2.9,9.7.3,4.4-3.7,9.2-7.3,12.6-11.9,8.7-11.8,19.9-20.9,31.2-29.8,11.7-9.3,24.3-17.7,36.9-25.9,6.3-4,13.4-6.7,20.1-9.9.2.3.3.6.4.9-2.1,3.9-4.1,7.7-6.4,12,2.3.2,4,.4,5.3.5-.9,8-1.7,15.8-2.6,23.5-.2,1.2-1,2.4-1.9,3.2-5.7,5.6-11.5,10.9-17.1,16.5-2.5,2.5-4.7,5.5-3.9,9.3,1.2,5.3,8.2,6.5,13,2,4.7-4.4,9-9.4,13.5-14,1-1,2.2-2.2,3.4-2.4,9.4-1.7,15.2-7.9,18.3-16.2,2.3-6.2,2.7-13.1,4.2-19.7,1.4-6.2,2.5-12.8,8.5-16.6,10.1-6.3,21.1-10.9,32.8-12.7,14.6-2.3,24.9-10.9,34.4-21.2,3.3-3.6,6.9-7,10.8-10.2,5.3-4.2,11.6-5.1,18.1-4.6,6.9.5,13.5-.5,19.7-4,1.1-.6,2.5-.7,3.7-.8,7.7-.8,14.6,2,21.6,4.6,1.6.6,4.5.5,5.2-.4,1-1.4,1.4-4.4.5-5.7h0ZM212.1,899.1c-.4-.1-.8-.2-1.2-.3,1.8-8.1,3.6-16.3,5.5-24.4.5.1,1,.3,1.5.4-1.3,8.3-.4,17.1-5.7,24.3h0Z"/>
      <g>
        <polygon class="st0" points="484.9 769.9 488.8 743 563 743 571.8 674.5 426.3 674.6 389.1 947.3 460.7 947.3 475.8 838 550.7 838 559.5 769.9 484.9 769.9"/>
        <polygon class="st0" points="728.3 837.9 737.1 769.8 650.2 769.8 653.9 742.9 740.6 742.9 749.5 674.4 591.4 674.5 554.3 947.2 714.2 947.1 723 879.3 635 879.4 640.7 838 728.3 837.9"/>
        <polygon class="st0" points="905.3 837.8 914.1 769.7 827.1 769.7 830.9 742.8 917.6 742.8 926.4 674.3 768.4 674.4 731.3 947.1 891.2 947.1 899.9 879.3 812 879.3 817.7 837.9 905.3 837.8"/>
        <polygon class="st0" points="989.7 879.9 1018 674.3 946.5 674.3 909.3 947 1058.2 947 1066.6 879.8 989.7 879.9"/>
      </g>
    </g>
  </g>
</svg>