<?xml version="1.0" encoding="UTF-8"?>
<svg id="a" xmlns="http://www.w3.org/2000/svg" version="1.1" viewBox="0 0 2401.3 2409.2">
  <!-- Generator: Adobe Illustrator 29.3.1, SVG Export Plug-In . SVG Version: 2.1.0 Build 151)  -->
  <defs>
    <style>
      .st0 {
        fill: #060300;
      }
    </style>
  </defs>
  <g id="d">
    <g>
      <path class="st0" d="M440.8,1323.5c-3.6-5.5-7.8-10.7-11.9-15.9-1.8-2.3-4.6-4.2-5.5-6.8-5.4-14.6-21.7-24-36-24.4-8-.3-15.6,1.4-23.3,2.4-2.8.4-6.7.1-8.5-1.6-1.3-1.1.1-5.2.3-7.9,0-.2.2-.5.4-.7,3.9-7.6,7.9-15.2,11.8-22.8,5.4-10.5,5.7-21.1,0-31.4-3.6-6.4-7.6-12.7-12.1-18.6-7.6-10.3-14.9-20.9-23.7-30-12.8-13.4-26.8-25.7-40.4-38.3-9.9-9.1-20-18.1-30.2-27-10.4-9-20.7-18.1-31.5-26.6-8.7-6.8-18.2-12.4-31.2-10,2.4,3.6,4.2,7.2,6.9,10.1,10.5,11.4,21.4,22.4,31.9,33.7,11.6,12.4,19.3,27.7,29.5,41.3,2.7,3.6,3.5,8.3,7.3,11.6,6.8,6.2,11.7,13.9,14.4,22.8,1.7,5.4,3.4,10.9,6,15.9,6.2,11.4,6.4,22.5,0,33.7-1.1,1.9-1.9,4-2.4,6.1-1.6,7.7-3,15.4-4.5,23.3-2.7-2.1-5.3-3.9-7.7-5.8-14.4-11.4-31.1-18.8-48.1-25.2-24.7-9.3-49.6-17.9-74.7-26.3-8.3-2.7-17.1-4.3-25.8-5.7-10.3-1.6-20.8-2.4-31.2-3.2-12.7-1-25.4-1.6-38.1-2.5-3-.3-4.9,1.4-5,3.7-.2,1.8,1.2,4.1,2.6,5.6,1.2,1.2,3.3,1.4,5,1.9,10.1,2.9,20.4,5.2,30.1,8.8,26.2,9.9,52.7,19.3,76.2,34.9,4,2.7,9.4,2.8,12.3,7.4,1.4,2.2,3.2,4.2,5.1,6,8.3,7.4,16.3,15.3,25.3,21.8,6.9,5,12,12.1,19.7,16.2.5.2.7,1.1.8,1.7,1.1,8.1,2.3,16.2,3.1,24.4.2,2.1-.4,5-1.8,6.5-3.8,4.1-7.7,8.6-12.6,11.2-7.8,4.3-16.2,7.3-24.5,10.6-17.8,6.9-35.8,13.3-51.5,24.7-4.6,3.3-8.8,7.3-13.7,11.4,8.2,1.9,14.3-1.1,20.2-4.4,8.2-4.6,16.7-4.9,25.9-3.2,0,4.2.3,8.5-.1,12.6-.4,3-1.6,6-2.6,8.9-.8,2.1-1.9,4.1-2.9,6.2-1.7,3.3-3.4,6.6-5.1,9.8-.8,1.5-1.8,2.9-2.6,4.3-1.5,2.5-2.8,5.2-4.5,7.5-5.5,7.6-10.7,15.3-13.2,24.6,3.2,2.5,6.6,2.9,9.7.3,4.4-3.7,9.2-7.3,12.6-11.9,8.7-11.8,19.9-20.9,31.2-29.8,11.7-9.3,24.3-17.7,36.9-25.9,6.3-4,13.4-6.7,20.1-9.9.2.3.3.6.4.9-2.1,3.9-4.1,7.7-6.4,12,2.3.2,4,.4,5.3.5-.9,8-1.7,15.8-2.6,23.5-.2,1.2-1,2.4-1.9,3.2-5.7,5.6-11.5,10.9-17.1,16.5-2.5,2.5-4.7,5.5-3.9,9.3,1.2,5.3,8.2,6.5,13,2,4.7-4.4,9-9.4,13.5-14,1-1,2.2-2.2,3.4-2.4,9.4-1.7,15.2-7.9,18.3-16.2,2.3-6.2,2.7-13.1,4.2-19.7,1.4-6.2,2.5-12.8,8.5-16.6,10.1-6.3,21.1-10.9,32.8-12.7,14.6-2.3,24.9-10.9,34.4-21.2,3.3-3.6,6.9-7,10.8-10.2,5.3-4.2,11.6-5.1,18.1-4.6,6.9.5,13.5-.5,19.7-4,1.1-.6,2.5-.7,3.7-.8,7.7-.8,14.6,2,21.6,4.6,1.6.6,4.5.5,5.2-.4,1-1.4,1.4-4.4.5-5.7h0ZM269.6,1410.7c-.4-.1-.8-.2-1.2-.3,1.8-8.1,3.6-16.3,5.5-24.4.5.1,1,.3,1.5.4-1.3,8.3-.4,17.1-5.7,24.3h0Z"/>
      <g>
        <polygon class="st0" points="490.7 1490.7 415.3 1490.7 419.4 1462.1 494.4 1462.1 503.2 1394.2 357.4 1394.2 319.9 1668.7 390.9 1668.7 406.2 1558.2 481.9 1558.2 490.7 1490.7"/>
        <polygon class="st0" points="567.7 1558.2 656.3 1558.2 665.1 1490.7 577.1 1490.7 581.1 1462.1 668.8 1462.1 677.6 1394.2 519.1 1394.2 481.6 1668.7 642 1668.7 650.7 1601.4 561.8 1601.4 567.7 1558.2"/>
        <polygon class="st0" points="743.8 1558.2 832.4 1558.2 841.2 1490.7 753.2 1490.7 757.2 1462.1 844.9 1462.1 853.7 1394.2 695.2 1394.2 657.7 1668.7 818.1 1668.7 826.8 1601.4 737.8 1601.4 743.8 1558.2"/>
        <polygon class="st0" points="943.3 1394.2 872.3 1394.2 834.8 1668.7 983.9 1668.7 992.3 1602.1 914.5 1602.1 943.3 1394.2"/>
        <polygon class="st0" points="1193.2 1490.7 1197.4 1462.1 1272.4 1462.1 1281.2 1394.2 1135.3 1394.2 1097.8 1668.7 1168.9 1668.7 1184.1 1558.2 1259.9 1558.2 1268.7 1490.7 1193.2 1490.7"/>
        <polygon class="st0" points="1340.6 1601.4 1346.6 1558.2 1435.1 1558.2 1443.9 1490.7 1355.9 1490.7 1359.9 1462.1 1447.6 1462.1 1456.4 1394.2 1297.9 1394.2 1260.4 1668.7 1420.8 1668.7 1429.5 1601.4 1340.6 1601.4"/>
        <path class="st0" d="M1793.9,1394.2h-176.7l-2.9,22c-19.4-18.8-42.5-28.3-68.6-28.3s-45.5,9.2-60.5,27.3c-11.9,14.4-17.9,30.9-17.9,49.1s4.1,27.8,12.2,41.7c5.7,9.9,17,23.6,34.6,42.1,18.8,19.9,25.1,28.2,27,31.8,2.4,4.3,3.6,8.3,3.6,12.1s-1.4,7.4-4.6,10.5c-3.3,3.2-7.3,4.6-12.4,4.6-12.7,0-25.3-9.4-37.5-28l-7.1-10.8-54.5,43.9,5.9,8.9c23.7,35.7,55.1,53.9,93.2,53.9s46.7-8,63.2-23.7c16.7-15.9,25.1-35.8,25.1-59.1s-1.9-20.7-5.6-30.6c-3.6-9.7-9.5-20.1-17.5-30.9-3.3-4.7-9.9-12.3-20.2-23.1-22.2-23.5-29.5-32.5-31.8-36-2.3-3.6-3.6-6.9-3.6-9.2s.2-2.5,2.1-4.2c1.8-1.6,4.1-2.4,7.2-2.4,8.1,0,18.8,8.1,30.2,22.8l7.6,9.8,29.3-26h49l-28.2,206.4h70.4l28.2-206.4h52.5l8.3-68.1h0Z"/>
        <polygon class="st0" points="2124.8 1394.2 2047.6 1394.2 1961.5 1554.9 1923.8 1403.1 1921.6 1394.2 1804.4 1394.2 1766.9 1668.7 1835.7 1668.7 1866 1452.4 1917.4 1659.8 1919.6 1668.7 1977.9 1668.7 2115.6 1411.4 2124.8 1394.2"/>
        <path class="st0" d="M2323.5,1602.1l28.8-207.9h-71l-27.5,201-50.1-201h-55.9l-148.2,274.4h77.3l28.6-53.4h83.5l13.3,53.4h190.6l8.4-66.5h-77.8ZM2171.6,1547.5h-30l20.6-38.5,9.4,38.5Z"/>
      </g>
    </g>
  </g>
</svg>