<?xml version="1.0"?>
<svg width="512" height="512" xmlns="http://www.w3.org/2000/svg" xmlns:svg="http://www.w3.org/2000/svg">
 <!-- Created with SVG-edit - https://github.com/SVG-Edit/svgedit-->
 <defs>
  <symbol id="svg_10" version="1.1" viewBox="0 0 1037.8 2409.2" xmlns="http://www.w3.org/2000/svg">
   <!-- Generator: Adobe Illustrator 29.3.1, SVG Export Plug-In . SVG Version: 2.1.0 Build 151)  -->
   <defs>
    <style>.st0 {
        fill: #060300;
      }</style>
   </defs>
   <g id="svg_9">
    <path class="st0" d="m383.3,260.3c-3.6,-5.5 -7.8,-10.7 -11.9,-15.9c-1.8,-2.3 -4.6,-4.2 -5.5,-6.8c-5.4,-14.6 -21.7,-24 -36,-24.4c-8,-0.3 -15.6,1.4 -23.3,2.4c-2.8,0.4 -6.7,0.1 -8.5,-1.6c-1.3,-1.1 0.1,-5.2 0.3,-7.9c0,-0.2 0.2,-0.5 0.4,-0.7c3.9,-7.6 7.9,-15.2 11.8,-22.8c5.4,-10.5 5.7,-21.1 0,-31.4c-3.6,-6.4 -7.6,-12.7 -12.1,-18.6c-7.6,-10.3 -14.9,-20.9 -23.7,-30c-12.8,-13.4 -26.8,-25.7 -40.4,-38.3c-9.9,-9.1 -20,-18.1 -30.2,-27c-10.4,-9 -20.7,-18.1 -31.5,-26.6c-8.7,-6.8 -18.2,-12.4 -31.2,-10c2.4,3.6 4.2,7.2 6.9,10.1c10.5,11.4 21.4,22.4 31.9,33.7c11.6,12.4 19.3,27.7 29.5,41.3c2.7,3.6 3.5,8.3 7.3,11.6c6.8,6.2 11.7,13.9 14.4,22.8c1.7,5.4 3.4,10.9 6,15.9c6.2,11.4 6.4,22.5 0,33.7c-1.1,1.9 -1.9,4 -2.4,6.1c-1.6,7.7 -3,15.4 -4.5,23.3c-2.7,-2.1 -5.3,-3.9 -7.7,-5.8c-14.4,-11.4 -31.1,-18.8 -48.1,-25.2c-24.7,-9.3 -49.6,-17.9 -74.7,-26.3c-8.3,-2.7 -17.1,-4.3 -25.8,-5.7c-10.3,-1.6 -20.8,-2.4 -31.2,-3.2c-12.7,-1 -25.4,-1.6 -38.1,-2.5c-3,-0.3 -4.9,1.4 -5.1,3.7c-0.2,1.8 1.2,4.1 2.6,5.6c1.2,1.2 3.3,1.4 5,1.9c10.1,2.9 20.4,5.2 30.1,8.8c26.2,9.9 52.7,19.3 76.2,34.9c4,2.7 9.4,2.8 12.3,7.4c1.4,2.2 3.2,4.2 5.1,6c8.3,7.4 16.3,15.3 25.3,21.8c6.9,5 12,12.1 19.7,16.2c0.5,0.2 0.7,1.1 0.8,1.7c1.1,8.1 2.3,16.2 3.1,24.4c0.2,2.1 -0.4,5 -1.8,6.5c-3.8,4.1 -7.7,8.6 -12.6,11.2c-7.8,4.3 -16.2,7.3 -24.5,10.6c-17.8,6.9 -35.8,13.3 -51.5,24.7c-4.6,3.3 -8.8,7.3 -13.7,11.4c8.2,1.9 14.3,-1.1 20.2,-4.4c8.2,-4.6 16.7,-4.9 25.9,-3.2c0,4.2 0.3,8.5 -0.1,12.6c-0.4,3 -1.6,6 -2.6,8.9c-0.8,2.1 -1.9,4.1 -2.9,6.2c-1.7,3.3 -3.4,6.6 -5.1,9.8c-0.8,1.5 -1.8,2.9 -2.6,4.3c-1.5,2.5 -2.8,5.2 -4.5,7.5c-5.5,7.6 -10.7,15.3 -13.2,24.6c3.2,2.5 6.6,2.9 9.7,0.3c4.4,-3.7 9.2,-7.3 12.6,-11.9c8.7,-11.8 19.9,-20.9 31.2,-29.8c11.7,-9.3 24.3,-17.7 36.9,-25.9c6.3,-4 13.4,-6.7 20.1,-9.9c0.2,0.3 0.3,0.6 0.4,0.9c-2.1,3.9 -4.1,7.7 -6.4,12c2.3,0.2 4,0.4 5.3,0.5c-0.9,8 -1.7,15.8 -2.6,23.5c-0.2,1.2 -1,2.4 -1.9,3.2c-5.7,5.6 -11.5,10.9 -17.1,16.5c-2.5,2.5 -4.7,5.5 -3.9,9.3c1.2,5.3 8.2,6.5 13,2c4.7,-4.4 9,-9.4 13.5,-14c1,-1 2.2,-2.2 3.4,-2.4c9.4,-1.7 15.2,-7.9 18.3,-16.2c2.3,-6.2 2.7,-13.1 4.2,-19.7c1.4,-6.2 2.5,-12.8 8.5,-16.6c10.1,-6.3 21.1,-10.9 32.8,-12.7c14.6,-2.3 24.9,-10.9 34.4,-21.2c3.3,-3.6 6.9,-7 10.8,-10.1c5.3,-4.2 11.6,-5.1 18.1,-4.6c6.9,0.5 13.5,-0.5 19.7,-4c1.1,-0.6 2.5,-0.7 3.7,-0.8c7.7,-0.8 14.6,2 21.6,4.6c1.6,0.6 4.5,0.5 5.2,-0.4c1,-1.4 1.4,-4.4 0.5,-5.7l0,0l0.2,-0.2zm-171.2,87.1c-0.4,-0.1 -0.8,-0.2 -1.2,-0.3c1.8,-8.1 3.6,-16.3 5.5,-24.4c0.5,0.1 1,0.3 1.5,0.4c-1.3,8.3 -0.4,17.1 -5.7,24.3l0,0l-0.1,0z"/>
   </g>
  </symbol>
 </defs>
 <g class="layer">
  <title>Layer 1</title>
  <use href="#svg_10" id="svg_11" transform="matrix(6.2739 0 0 6.08505 -913.959 0.106221)"/>
 </g>
</svg>